<?xml version="1.0" standalone="no"?>
<!DOCTYPE svg PUBLIC "-//W3C//DTD SVG 20010904//EN"
 "http://www.w3.org/TR/2001/REC-SVG-20010904/DTD/svg10.dtd">
<svg version="1.0" xmlns="http://www.w3.org/2000/svg"
 width="314.000000pt" height="382.000000pt" viewBox="0 0 314.000000 382.000000"
 preserveAspectRatio="xMidYMid meet">

<g transform="translate(0.000000,382.000000) scale(0.100000,-0.100000)"
fill="#000000" stroke="none">
<path d="M1249 3806 c-59 -16 -130 -58 -163 -96 -14 -17 -42 -62 -62 -101 -27
-50 -49 -79 -78 -98 -42 -28 -49 -28 -251 -20 -70 3 -87 0 -137 -23 -74 -34
-142 -106 -169 -177 -18 -48 -20 -70 -16 -156 9 -162 -15 -203 -150 -266 -148
-69 -218 -169 -216 -309 1 -88 13 -121 79 -210 82 -111 88 -178 28 -273 -80
-126 -100 -217 -70 -318 31 -106 107 -180 225 -220 135 -47 162 -88 171 -260
6 -103 9 -121 34 -164 79 -135 213 -195 359 -161 119 28 196 17 242 -33 11
-13 40 -52 65 -89 79 -116 180 -170 300 -159 83 7 140 37 223 115 111 105 159
113 298 51 65 -30 84 -34 159 -34 101 0 155 22 225 91 50 48 69 88 91 184 21
94 23 97 51 130 35 42 74 60 152 71 113 16 159 36 222 98 102 101 124 213 69
361 -52 140 -40 190 67 290 88 83 109 114 129 190 35 137 -16 259 -148 353
-108 77 -130 150 -88 285 26 84 25 163 -3 232 -28 69 -63 93 -104 70 -34 -19
-42 -65 -19 -109 21 -40 20 -103 -4 -179 -35 -112 -23 -216 36 -305 13 -20 57
-62 98 -91 99 -74 131 -142 106 -231 -12 -44 -38 -75 -131 -160 -69 -64 -94
-123 -94 -225 0 -70 5 -97 28 -152 40 -98 33 -171 -22 -231 -38 -42 -72 -56
-157 -67 -91 -12 -148 -35 -203 -86 -58 -52 -86 -105 -106 -199 -21 -99 -50
-146 -107 -174 -65 -31 -118 -27 -218 16 -73 33 -95 38 -160 38 -98 0 -151
-25 -239 -109 -37 -36 -83 -72 -104 -81 -92 -38 -179 -5 -245 95 -87 133 -157
182 -273 188 -40 3 -96 -3 -139 -12 -81 -19 -116 -15 -175 19 -63 36 -82 81
-87 205 -9 193 -74 285 -244 346 -88 32 -118 55 -144 110 -34 69 -25 134 28
216 59 90 72 128 72 205 0 94 -13 133 -72 210 -85 113 -95 179 -42 270 21 36
38 49 117 86 71 34 104 57 139 96 65 73 83 130 80 260 -3 120 6 155 51 199 58
56 97 66 205 51 189 -26 301 33 390 206 25 50 66 90 114 109 74 31 134 13 226
-66 87 -76 152 -101 247 -96 60 3 84 10 165 51 105 52 156 60 213 31 62 -31
86 -64 114 -154 28 -93 42 -119 87 -167 33 -36 60 -41 94 -17 30 21 29 65 -3
101 -14 16 -38 70 -55 125 -26 82 -38 105 -80 151 -68 75 -130 101 -235 102
-76 0 -85 -3 -175 -48 -136 -68 -199 -63 -292 20 -67 61 -101 81 -164 98 -68
18 -93 18 -155 1z"/>
<path d="M2754 3513 c-17 -16 -56 -57 -86 -93 -67 -80 -283 -334 -319 -375
-37 -42 -689 -805 -758 -887 -31 -37 -58 -67 -61 -67 -3 -1 -63 67 -134 149
-124 146 -138 157 -186 150 -29 -4 -60 -43 -60 -76 0 -36 -5 -29 174 -239 141
-166 171 -195 207 -195 36 0 39 4 240 240 96 113 377 441 625 730 247 288 459
538 472 554 29 39 28 81 -3 111 -32 33 -73 32 -111 -2z"/>
<path d="M1383 3216 c-386 -74 -681 -346 -785 -722 -18 -65 -22 -107 -22 -239
-1 -138 2 -172 22 -245 49 -179 133 -323 266 -455 296 -295 745 -366 1121
-177 193 97 359 268 450 465 93 201 114 450 56 662 -38 138 -64 174 -117 161
-38 -10 -41 -48 -11 -140 37 -115 51 -215 43 -327 -20 -322 -206 -593 -498
-728 -109 -51 -191 -71 -315 -78 -391 -22 -738 214 -864 587 -145 434 76 902
509 1075 180 73 418 73 615 2 56 -20 157 -75 218 -119 41 -28 101 22 81 68
-17 36 -138 111 -257 159 -133 54 -373 77 -512 51z"/>
<path d="M2540 1110 c-31 -31 -35 -17 82 -270 87 -188 138 -303 138 -311 0 -5
-71 16 -157 47 -320 113 -301 108 -326 91 -16 -11 -41 -70 -96 -226 -40 -116
-76 -211 -80 -211 -3 0 -59 115 -125 255 -65 140 -127 261 -137 271 -24 22
-66 11 -81 -21 -14 -31 -21 -15 238 -564 24 -51 44 -96 44 -101 0 -4 9 -19 21
-34 26 -34 72 -35 93 -4 8 13 52 129 97 258 45 129 85 239 90 244 7 8 145 -37
427 -140 51 -19 104 -34 117 -34 31 0 59 40 50 70 -6 18 -145 324 -278 611
-43 92 -75 111 -117 69z"/>
<path d="M429 923 c-22 -26 -229 -487 -229 -510 0 -30 35 -56 67 -51 25 5 225
74 445 154 42 16 79 26 82 23 4 -3 45 -116 92 -250 47 -134 92 -252 101 -261
19 -21 52 -23 75 -5 18 13 248 506 248 530 0 22 -34 47 -63 47 -34 0 -42 -12
-131 -205 -40 -86 -76 -157 -80 -158 -4 -1 -42 93 -83 209 -62 175 -79 213
-98 222 -29 13 -37 11 -294 -82 -101 -36 -186 -65 -188 -63 -2 3 33 85 78 183
77 167 81 180 67 204 -17 32 -67 39 -89 13z"/>
</g>
</svg>
